<svg width="37" height="37" viewBox="0 0 37 37" fill="none" xmlns="http://www.w3.org/2000/svg">
<circle cx="18.5" cy="18.5" r="18.5" fill="#D9D9D9"/>
<path d="M5.34091 23V22.0625H5.57955C5.77557 22.0625 5.93892 22.0241 6.0696 21.9474C6.20028 21.8679 6.3054 21.7301 6.38494 21.5341C6.46733 21.3352 6.52983 21.0597 6.57244 20.7074C6.6179 20.3523 6.65057 19.9006 6.67045 19.3523L6.78977 16.4545H11.1534V23H10.1477V17.392H7.74432L7.64205 19.7273C7.61932 20.2642 7.57102 20.7372 7.49716 21.1463C7.42614 21.5526 7.31676 21.8935 7.16903 22.169C7.02415 22.4446 6.83097 22.652 6.58949 22.7912C6.34801 22.9304 6.04545 23 5.68182 23H5.34091ZM15.6577 23.1364C15.0668 23.1364 14.5483 22.9957 14.1023 22.7145C13.6591 22.4332 13.3125 22.0398 13.0625 21.5341C12.8153 21.0284 12.6918 20.4375 12.6918 19.7614C12.6918 19.0795 12.8153 18.4844 13.0625 17.9759C13.3125 17.4673 13.6591 17.0724 14.1023 16.7912C14.5483 16.5099 15.0668 16.3693 15.6577 16.3693C16.2486 16.3693 16.7656 16.5099 17.2088 16.7912C17.6548 17.0724 18.0014 17.4673 18.2486 17.9759C18.4986 18.4844 18.6236 19.0795 18.6236 19.7614C18.6236 20.4375 18.4986 21.0284 18.2486 21.5341C18.0014 22.0398 17.6548 22.4332 17.2088 22.7145C16.7656 22.9957 16.2486 23.1364 15.6577 23.1364ZM15.6577 22.233C16.1065 22.233 16.4759 22.1179 16.7656 21.8878C17.0554 21.6577 17.2699 21.3551 17.4091 20.9801C17.5483 20.6051 17.6179 20.1989 17.6179 19.7614C17.6179 19.3239 17.5483 18.9162 17.4091 18.5384C17.2699 18.1605 17.0554 17.8551 16.7656 17.6222C16.4759 17.3892 16.1065 17.2727 15.6577 17.2727C15.2088 17.2727 14.8395 17.3892 14.5497 17.6222C14.2599 17.8551 14.0455 18.1605 13.9062 18.5384C13.767 18.9162 13.6974 19.3239 13.6974 19.7614C13.6974 20.1989 13.767 20.6051 13.9062 20.9801C14.0455 21.3551 14.2599 21.6577 14.5497 21.8878C14.8395 22.1179 15.2088 22.233 15.6577 22.233ZM24.1985 16.4545V17.392H21.1644V23H20.1587V16.4545H24.1985ZM27.9858 23.1364C27.3949 23.1364 26.8764 22.9957 26.4304 22.7145C25.9872 22.4332 25.6406 22.0398 25.3906 21.5341C25.1435 21.0284 25.0199 20.4375 25.0199 19.7614C25.0199 19.0795 25.1435 18.4844 25.3906 17.9759C25.6406 17.4673 25.9872 17.0724 26.4304 16.7912C26.8764 16.5099 27.3949 16.3693 27.9858 16.3693C28.5767 16.3693 29.0938 16.5099 29.5369 16.7912C29.983 17.0724 30.3295 17.4673 30.5767 17.9759C30.8267 18.4844 30.9517 19.0795 30.9517 19.7614C30.9517 20.4375 30.8267 21.0284 30.5767 21.5341C30.3295 22.0398 29.983 22.4332 29.5369 22.7145C29.0938 22.9957 28.5767 23.1364 27.9858 23.1364ZM27.9858 22.233C28.4347 22.233 28.804 22.1179 29.0938 21.8878C29.3835 21.6577 29.598 21.3551 29.7372 20.9801C29.8764 20.6051 29.946 20.1989 29.946 19.7614C29.946 19.3239 29.8764 18.9162 29.7372 18.5384C29.598 18.1605 29.3835 17.8551 29.0938 17.6222C28.804 17.3892 28.4347 17.2727 27.9858 17.2727C27.5369 17.2727 27.1676 17.3892 26.8778 17.6222C26.5881 17.8551 26.3736 18.1605 26.2344 18.5384C26.0952 18.9162 26.0256 19.3239 26.0256 19.7614C26.0256 20.1989 26.0952 20.6051 26.2344 20.9801C26.3736 21.3551 26.5881 21.6577 26.8778 21.8878C27.1676 22.1179 27.5369 22.233 27.9858 22.233Z" fill="black"/>
</svg>
