<svg width="27" height="27" viewBox="0 0 27 27" fill="none" xmlns="http://www.w3.org/2000/svg">
<path d="M13.3333 0C9.79711 0 6.40573 1.40476 3.90524 3.90524C1.40476 6.40573 0 9.79711 0 13.3333C0 16.8695 1.40476 20.2609 3.90524 22.7614C6.40573 25.2619 9.79711 26.6667 13.3333 26.6667C16.8695 26.6667 20.2609 25.2619 22.7614 22.7614C25.2619 20.2609 26.6667 16.8695 26.6667 13.3333C26.6667 9.79711 25.2619 6.40573 22.7614 3.90524C20.2609 1.40476 16.8695 0 13.3333 0Z" fill="#29B6F6"/>
<path d="M19.9667 7.33317L17.4693 20.0838C17.4693 20.0838 17.362 20.6665 16.6393 20.6665C16.2553 20.6665 16.0573 20.4838 16.0573 20.4838L10.648 15.9952L8.00133 14.6612L4.60467 13.7578C4.60467 13.7578 4 13.5832 4 13.0832C4 12.6665 4.622 12.4678 4.622 12.4678L18.8327 6.82251C18.8327 6.82251 19.2667 6.66584 19.5833 6.66651C19.778 6.66651 20 6.74984 20 6.99984C20 7.16651 19.9667 7.33317 19.9667 7.33317Z" fill="white"/>
<path d="M12.6669 17.6699L10.3829 19.9192C10.3829 19.9192 10.2835 19.9959 10.1509 19.9992C10.1049 20.0006 10.0555 19.9932 10.0049 19.9706L10.6475 15.9939L12.6669 17.6699Z" fill="#B0BEC5"/>
<path d="M17.2647 9.46385C17.152 9.31718 16.944 9.29051 16.7973 9.40185L8 14.6665C8 14.6665 9.404 18.5945 9.618 19.2745C9.83267 19.9552 10.0047 19.9712 10.0047 19.9712L10.6473 15.9945L17.202 9.93051C17.3487 9.81918 17.376 9.61051 17.2647 9.46385Z" fill="#CFD8DC"/>
</svg>
