<svg width="27" height="28" viewBox="0 0 27 28" fill="none" xmlns="http://www.w3.org/2000/svg">
<path d="M13.3337 0.666504C11.5743 0.666504 6.22033 0.666504 3.26033 3.36917C1.49766 5.12517 0.666992 7.6625 0.666992 11.3332V13.3332C0.666992 17.0038 1.49766 19.5412 3.28099 21.3172C4.16899 22.1272 5.37966 22.7745 6.85966 23.2218L7.33366 23.3645V26.9165C7.33366 27.3332 7.45433 27.3332 7.49433 27.3332C7.57633 27.3332 7.70766 27.3072 7.95699 27.0858C8.01699 27.0265 8.45699 26.5505 10.597 24.1532L10.813 23.9112L11.1363 23.9318C11.853 23.9765 12.5923 23.9998 13.3337 23.9998C15.093 23.9998 20.447 23.9998 23.407 21.2965C25.169 19.5405 26.0003 17.0032 26.0003 13.3332V11.3332C26.0003 7.6625 25.1697 5.12517 23.3863 3.34917C20.447 0.666504 15.093 0.666504 13.3337 0.666504Z" fill="white"/>
<path d="M19.6342 16.5692C18.8936 15.9452 18.5516 15.7565 17.5289 15.1425C17.1029 14.8872 16.4536 14.6665 16.1129 14.6665C15.8802 14.6665 15.6016 14.8445 15.4309 15.0152C14.9936 15.4525 14.8502 15.9998 14.0836 15.9998C13.3336 15.9998 12.0236 15.2365 11.0836 14.2498C10.0969 13.3098 9.33357 11.9998 9.33357 11.2498C9.33357 10.4832 9.8709 10.3298 10.3082 9.89184C10.4789 9.72184 10.6669 9.44317 10.6669 9.2105C10.6669 8.86984 10.4462 8.2305 10.1909 7.8045C9.5769 6.78117 9.3889 6.43917 8.76423 5.69917C8.5529 5.4485 8.31223 5.33384 8.06023 5.33317C7.63423 5.3325 7.0749 5.54384 6.69623 5.82584C6.1269 6.2505 5.53156 6.8285 5.37223 7.5485C5.3509 7.6465 5.33823 7.74517 5.33423 7.84384C5.30357 8.59384 5.59823 9.35517 5.91623 9.99984C6.6649 11.5192 7.65557 12.9898 8.73357 14.3032C9.07823 14.7232 9.45357 15.1138 9.84223 15.4912C10.2196 15.8792 10.6102 16.2545 11.0302 16.5998C12.3436 17.6778 13.8142 18.6685 15.3336 19.4172C15.9722 19.7318 16.7242 20.0212 17.4669 19.9998C17.5729 19.9965 17.6789 19.9845 17.7849 19.9612C18.5049 19.8025 19.0829 19.2065 19.5076 18.6372C19.7896 18.2585 20.0009 17.6998 20.0002 17.2732C19.9996 17.0212 19.8849 16.7805 19.6342 16.5692ZM20.0002 13.3332C19.6322 13.3332 19.3336 13.0345 19.3336 12.6665V11.9998C19.3336 8.69184 16.6416 5.99984 13.3336 5.99984C12.9656 5.99984 12.6669 5.70117 12.6669 5.33317C12.6669 4.96517 12.9656 4.6665 13.3336 4.6665C17.3769 4.6665 20.6669 7.9565 20.6669 11.9998V12.6665C20.6669 13.0345 20.3682 13.3332 20.0002 13.3332ZM15.9056 11.9998C15.6096 11.9998 15.3389 11.8012 15.2609 11.5012C15.0782 10.8005 14.5316 10.2532 13.8336 10.0732C13.4769 9.9805 13.2629 9.61717 13.3549 9.2605C13.4469 8.9045 13.8096 8.6905 14.1676 8.78184C15.3329 9.08384 16.2462 9.9965 16.5509 11.1645C16.6436 11.5212 16.4302 11.8845 16.0742 11.9778C16.0176 11.9925 15.9609 11.9998 15.9056 11.9998Z" fill="#7E57C2"/>
<path d="M17.9996 12.6667C17.6316 12.6667 17.333 12.368 17.333 12C17.333 9.87467 15.6703 8.12133 13.5476 8.00933C13.1796 7.99 12.8976 7.676 12.917 7.30867C12.9363 6.94067 13.2556 6.658 13.6176 6.678C16.449 6.82733 18.6663 9.16533 18.6663 12C18.6663 12.368 18.3676 12.6667 17.9996 12.6667Z" fill="#7E57C2"/>
<path d="M13.3337 0C10.3337 0 5.659 0.276 2.811 2.87733C0.797666 4.882 0.000333382 7.694 0.000333382 11.3333C0.000333382 11.6347 -0.00100005 11.9707 0.00166662 12.3333C-0.00100005 12.6953 0.000333382 13.0313 0.000333382 13.3327C0.000333382 16.972 0.797666 19.784 2.811 21.7887C3.895 22.7787 5.247 23.43 6.667 23.8593V26.9167C6.667 27.9807 7.36633 28 7.49433 28H7.50033C7.82966 27.9987 8.11433 27.8373 8.39966 27.584C8.507 27.4887 9.74633 26.1073 11.0943 24.5967C11.897 24.648 12.6597 24.6667 13.333 24.6667C16.333 24.6667 21.007 24.39 23.8557 21.7887C25.8683 19.7847 26.6663 16.972 26.6663 13.3327C26.6663 13.0313 26.6677 12.6953 26.665 12.3327C26.6677 11.97 26.6663 11.6347 26.6663 11.3327C26.6663 7.69333 25.869 4.88133 23.8557 2.87667C21.0077 0.276 16.3337 0 13.3337 0ZM24.667 13.1007V13.3327C24.667 16.6033 23.9703 18.832 22.4763 20.3407C19.8883 22.6667 14.9583 22.6667 13.333 22.6667C12.8383 22.6667 12.0357 22.666 11.0883 22.6C10.825 22.896 8.00033 26.0553 8.00033 26.0553V22.1467C6.59766 21.81 5.21167 21.258 4.191 20.3413C2.697 18.832 2.00033 16.6033 2.00033 13.3327V13.1007C2.00033 12.8667 1.99967 12.614 2.00167 12.3187C1.99967 12.052 1.99967 11.8 2.00033 11.5653V11.3333C2.00033 8.06267 2.697 5.834 4.191 4.32533C6.77833 1.99933 11.709 1.99933 13.3337 1.99933C14.9583 1.99933 19.8883 1.99933 22.4757 4.32533C23.9703 5.834 24.6663 8.06267 24.6663 11.3333V11.5653C24.6663 11.7993 24.667 12.052 24.665 12.3473C24.667 12.6147 24.667 12.8667 24.667 13.1007Z" fill="#7E57C2"/>
</svg>
