<svg width="28" height="27" viewBox="0 0 28 27" fill="none" xmlns="http://www.w3.org/2000/svg">
<path d="M1.57812 26.2018L3.37413 19.6452C2.26612 17.7265 1.68346 15.5492 1.68412 13.3192C1.68746 6.3425 7.36479 0.666504 14.3421 0.666504C17.7281 0.667837 20.9055 1.98584 23.2955 4.37717C25.6848 6.76917 27.0008 9.94784 26.9995 13.3292C26.9968 20.3058 21.3181 25.9825 14.3421 25.9825H14.3368C12.2188 25.9818 10.1368 25.4505 8.28813 24.4418L1.57812 26.2018Z" fill="white"/>
<path d="M1.57914 26.5352C1.49114 26.5352 1.4058 26.5006 1.34247 26.4366C1.25914 26.3519 1.22647 26.2286 1.2578 26.1146L3.01714 19.6906C1.92647 17.7532 1.35114 15.5532 1.35247 13.3199C1.35514 6.15858 7.18247 0.333252 14.3431 0.333252C17.8165 0.334585 21.0798 1.68725 23.5325 4.14192C25.9851 6.59725 27.3351 9.85992 27.3338 13.3292C27.3311 20.4899 21.5031 26.3159 14.3431 26.3159C12.2171 26.3152 10.1138 25.7906 8.24714 24.7979L1.6638 26.5239C1.6358 26.5319 1.6078 26.5352 1.57914 26.5352Z" fill="white"/>
<path d="M14.343 0.666667C17.729 0.668 20.9064 1.986 23.2964 4.37733C25.6857 6.76933 27.0017 9.948 27.0004 13.3293C26.9977 20.306 21.319 25.9827 14.343 25.9827H14.3377C12.2197 25.982 10.1377 25.4507 8.28905 24.442L1.57905 26.202L3.37505 19.6453C2.26705 17.7267 1.68438 15.5493 1.68505 13.3193C1.68838 6.34267 7.36572 0.666667 14.343 0.666667ZM14.343 0C6.99905 0 1.02172 5.97467 1.01838 13.3193C1.01772 15.564 1.58438 17.776 2.65905 19.734L0.935717 26.0267C0.87305 26.2567 0.93705 26.502 1.10505 26.6713C1.23172 26.7993 1.40305 26.8693 1.57905 26.8693C1.63572 26.8693 1.69238 26.862 1.74838 26.8473L8.20638 25.154C10.0917 26.1327 12.205 26.6493 14.3377 26.65C21.687 26.65 27.6644 20.6747 27.6677 13.33C27.669 9.77067 26.2844 6.424 23.769 3.90667C21.2524 1.38867 17.905 0.00133333 14.343 0Z" fill="#CFD8DC"/>
<path d="M21.784 5.88796C19.7973 3.89995 17.1566 2.80462 14.346 2.80396C8.54329 2.80396 3.82396 7.52129 3.82129 13.32C3.82062 15.3073 4.37662 17.242 5.42996 18.9173L5.68062 19.3153L4.61729 23.196L8.59929 22.152L8.98396 22.38C10.5986 23.3386 12.4506 23.8453 14.3386 23.846H14.3426C20.1413 23.846 24.8606 19.128 24.8626 13.3286C24.8633 10.5186 23.7706 7.87596 21.784 5.88796Z" fill="#40C351"/>
<path fill-rule="evenodd" clip-rule="evenodd" d="M11.1788 8.02984C10.9422 7.50318 10.6928 7.49251 10.4668 7.48318C10.2822 7.47518 10.0715 7.47584 9.86082 7.47584C9.65016 7.47584 9.30749 7.55518 9.01749 7.87184C8.72749 8.18851 7.91016 8.95318 7.91016 10.5092C7.91016 12.0652 9.04349 13.5692 9.20149 13.7798C9.35949 13.9905 11.3895 17.2858 14.6042 18.5538C17.2755 19.6072 17.8195 19.3978 18.3995 19.3452C18.9795 19.2925 20.2708 18.5805 20.5342 17.8418C20.7975 17.1032 20.7975 16.4705 20.7188 16.3385C20.6395 16.2065 20.4288 16.1278 20.1128 15.9692C19.7968 15.8105 18.2415 15.0458 17.9515 14.9405C17.6615 14.8352 17.4508 14.7825 17.2395 15.0992C17.0288 15.4152 16.4228 16.1278 16.2382 16.3385C16.0535 16.5498 15.8688 16.5765 15.5528 16.4178C15.2368 16.2592 14.2182 15.9258 13.0095 14.8485C12.0695 14.0105 11.4348 12.9752 11.2502 12.6585C11.0655 12.3425 11.2302 12.1712 11.3888 12.0132C11.5308 11.8712 11.7048 11.6438 11.8635 11.4592C12.0215 11.2745 12.0742 11.1425 12.1795 10.9318C12.2848 10.7205 12.2322 10.5358 12.1528 10.3778C12.0748 10.2192 11.4602 8.65518 11.1788 8.02984Z" fill="white"/>
</svg>
